<svg xmlns="http://www.w3.org/2000/svg" viewBox="0 0 32 32"><path style="text-indent:0;text-align:start;line-height:normal;text-transform:none;block-progression:tb;-inkscape-font-specification:Bitstream Vera Sans" d="M9.094 5C6.85 5 5 6.851 5 9.094v13.812C5 25.15 6.851 27 9.094 27h13.812C25.15 27 27 25.149 27 22.906V9.094C27 6.85 25.149 5 22.906 5H9.094zm0 2h13.812C24.068 7 25 7.932 25 9.094v13.812A2.087 2.087 0 0122.906 25H9.094A2.087 2.087 0 017 22.906V9.094C7 7.932 7.932 7 9.094 7zm6.625 5.219c-.734-.007-1.367.014-1.719.187-.234.115-.422.36-.313.375.136.018.463.09.626.313.21.287.187.937.187.937s.123 1.78-.281 2c-.277.151-.652-.182-1.469-1.593-.419-.724-.719-1.5-.719-1.5s-.078-.17-.187-.25c-.132-.098-.313-.126-.313-.126l-1.937.032s-.3-.003-.406.125c-.097.114-.032.344-.032.344s1.547 3.6 3.281 5.406C14.03 20.123 15.845 20 15.845 20h.812s.25-.02.375-.156c.116-.125.094-.375.094-.375s-.009-1.09.5-1.25c.502-.16 1.16 1.062 1.844 1.531.517.355.906.281.906.281L22.188 20s.953-.06.5-.813c-.037-.06-.25-.546-1.344-1.562-1.146-1.064-1.006-.91.375-2.75.84-1.121 1.198-1.8 1.093-2.094-.1-.279-.718-.187-.718-.187H20.03s-.168-.006-.281.062c-.111.066-.188.219-.188.219s-.316.856-.75 1.594c-.916 1.556-1.287 1.627-1.437 1.531-.349-.225-.25-.893-.25-1.375 0-1.508.236-2.15-.438-2.313-.224-.053-.395-.087-.968-.093z" color="#000" overflow="visible" font-family="Bitstream Vera Sans"/></svg>